<?xml version="1.0" standalone="no"?>
<!DOCTYPE svg PUBLIC "-//W3C//DTD SVG 20010904//EN"
 "http://www.w3.org/TR/2001/REC-SVG-20010904/DTD/svg10.dtd">
<svg version="1.0" xmlns="http://www.w3.org/2000/svg"
 width="260.000000pt" height="260.000000pt" viewBox="0 0 260.000000 260.000000"
 preserveAspectRatio="xMidYMid meet">
<metadata>
Created by potrace 1.14, written by Peter Selinger 2001-2017
</metadata>
<g transform="translate(0.000000,260.000000) scale(0.100000,-0.100000)"
fill="#000000" stroke="none">
<path d="M453 2539 c-43 -13 -90 -62 -103 -107 -14 -53 -14 -949 1 -1008 14
-55 57 -100 107 -113 20 -6 153 -13 295 -16 278 -7 310 -3 358 42 48 44 50 69
51 589 l0 485 -24 47 c-42 85 -50 87 -373 89 -154 1 -294 -3 -312 -8z m437
-614 l0 -395 -142 0 -143 0 2 357 c1 197 2 375 2 396 l1 37 140 0 140 0 0
-395z"/>
<path d="M1794 2483 c-20 -38 -45 -81 -54 -98 -10 -16 -31 -55 -47 -85 -17
-30 -77 -140 -135 -245 -58 -104 -126 -230 -153 -280 -26 -49 -51 -94 -55
-100 -4 -5 -29 -50 -55 -100 -26 -49 -67 -124 -90 -165 -23 -41 -58 -104 -77
-140 -52 -95 -596 -1087 -625 -1140 -14 -25 -29 -55 -34 -67 l-9 -23 149 0
149 0 120 217 c66 120 133 243 150 273 16 30 38 71 49 90 11 19 36 64 55 100
20 36 47 85 61 110 68 124 188 341 214 390 17 30 91 165 166 300 399 722 553
1008 549 1018 -3 9 -46 12 -147 12 l-144 0 -37 -67z"/>
<path d="M1536 1265 c-49 -17 -92 -66 -100 -114 -3 -20 -6 -248 -6 -507 l0
-471 23 -44 c44 -83 49 -84 393 -84 l301 0 37 29 c70 53 69 46 70 571 0 516
-3 545 -56 590 -16 13 -45 29 -66 35 -59 16 -548 12 -596 -5z m444 -605 l0
-390 -140 0 -140 0 0 390 0 390 140 0 140 0 0 -390z"/>
</g>
</svg>
